<?xml version="1.0" encoding="UTF-8"?>
<!-- Generator: Adobe Illustrator 21.0.0, SVG Export Plug-In . SVG Version: 6.00 Build 0)  -->
<svg width="117" height="118" version="1.1" viewBox="0 0 117 118" xml:space="preserve" xmlns="http://www.w3.org/2000/svg" xmlns:cc="http://creativecommons.org/ns#" xmlns:dc="http://purl.org/dc/elements/1.1/" xmlns:rdf="http://www.w3.org/1999/02/22-rdf-syntax-ns#"><metadata><rdf:RDF><cc:Work rdf:about=""><dc:format>image/svg+xml</dc:format><dc:type rdf:resource="http://purl.org/dc/dcmitype/StillImage"/><dc:title/></cc:Work></rdf:RDF></metadata>
<path d="m94.2 30.4h-30.9c-2.42 0-4.38 1.97-4.38 4.38v3.68h-34.6c-3.1 0-5.63 2.52-5.63 5.63v26c0 3.1 2.52 5.63 5.63 5.63h5.4v10.9c0 0.502 0.296 0.956 0.755 1.16 0.165 0.0727 0.339 0.108 0.512 0.108 0.31 0 0.616-0.113 0.853-0.33l13-11.8h22.7c3.1 0 5.63-2.52 5.63-5.63v-12.4h6.15l9.2 8.36c0.238 0.216 0.544 0.33 0.853 0.33 0.173 0 0.348-0.0355 0.513-0.108 0.459-0.203 0.755-0.658 0.755-1.16v-7.42h3.5c2.41 0 4.38-1.97 4.38-4.38v-18.6c8.4e-4 -2.42-1.96-4.38-4.38-4.38zm-23.5 39.7c0 1.7-1.39 3.09-3.09 3.09h-23.2c-0.315 0-0.619 0.118-0.853 0.33l-11.3 10.2v-9.3c0-0.701-0.567-1.27-1.27-1.27h-6.67c-1.7 0-3.09-1.39-3.09-3.09v-26c0-1.7 1.39-3.09 3.09-3.09h35.8c0.0042 0 0.0085 8.45e-4 0.0127 8.45e-4 0.0042 0 0.0085-8.45e-4 0.0127-8.45e-4h7.37c1.7 0 3.09 1.39 3.09 3.09zm25.3-16.7c0 1.02-0.826 1.85-1.84 1.85h-4.77c-0.7 0-1.27 0.567-1.27 1.27v5.82l-7.44-6.76c-0.233-0.211-0.538-0.33-0.853-0.33h-6.64v-11.1c0-3.1-2.52-5.63-5.63-5.63h-6.11v-3.68c0-1.02 0.828-1.84 1.84-1.84h30.9c1.02 0 1.84 0.827 1.84 1.84z" stroke="#000" stroke-width=".846"/>
<path d="m113 59.2a54.6 54.6 0 0 1-54.4 54.6 54.6 54.6 0 0 1-54.7-54.2 54.6 54.6 0 0 1 54-54.9 54.6 54.6 0 0 1 55.1 53.9" fill="none" stroke="#000" stroke-linecap="round" stroke-linejoin="round" stroke-width="3.69" style="paint-order:normal"/></svg>
