<?xml version="1.0" encoding="UTF-8" standalone="no"?> <svg width="48" height="48" viewBox="0 0 48 48" fill="none" xmlns="http://www.w3.org/2000/svg">
<path d="M0.986659 31.001L10.0526 34.768C10.5085 36.8197 11.9062 38.6194 13.9682 39.4851C17.342 40.9046 21.232 39.2868 22.6354 35.8879C23.0007 34.9994 23.171 34.0676 23.1463 33.1378L31.5156 27.1148C31.5833 27.1169 31.6531 27.1189 31.7208 27.1189C36.7292 27.1189 40.8 23.0072 40.8 17.9578C40.8 12.908 36.7292 8.8 31.7208 8.8C26.7144 8.8 22.6416 12.908 22.6416 17.9578C22.6416 17.9983 22.6416 18.0388 22.6437 18.0768L16.7944 26.6334C15.8469 26.59 14.8961 26.7573 13.9945 27.1313C13.5971 27.2946 13.2247 27.495 12.8753 27.7264L0.0312094 22.4018C0.0312154 22.4018 0.0301588 22.4194 0.0284312 22.4533C0.0189897 22.4374 0.00951262 22.4214 0 22.4055C0.822857 9.89439 11.2414 0 23.9742 0C37.243 0 48 10.7452 48 24C48 37.2546 37.243 48 23.9742 48C13.1429 48 3.98567 40.8412 0.986659 31.001Z" fill="black"/>
<path d="M21.2382 35.297C20.1519 37.9231 17.1551 39.169 14.5501 38.076C13.3484 37.5719 12.4411 36.6483 11.9177 35.547L14.8733 36.7805C16.7944 37.5863 18.9984 36.6689 19.797 34.735C20.598 32.7989 19.6893 30.5757 17.7692 29.7699L14.7139 28.495C15.8928 28.0446 17.233 28.0281 18.4853 28.5529C19.7477 29.0818 20.7273 30.0777 21.2464 31.3505C21.7655 32.6233 21.7634 34.0283 21.2382 35.297Z" fill="black"/>
<path fill-rule="evenodd" clip-rule="evenodd" d="M25.6721 17.9578C25.6721 21.3233 28.3866 24.061 31.7208 24.061C35.057 24.061 37.7716 21.3233 37.7716 17.9578C37.7716 14.5951 35.057 11.8566 31.7208 11.8566C28.3866 11.8566 25.6721 14.5951 25.6721 17.9578ZM31.7311 22.532C29.2238 22.532 27.1884 20.4805 27.1884 17.9486C27.1884 15.4168 29.2238 13.3634 31.7311 13.3634C34.2404 13.3634 36.2758 15.4168 36.2758 17.9486C36.2758 20.4805 34.2404 22.532 31.7311 22.532Z" fill="black"/>
</svg>
