<?xml version="1.0" encoding="iso-8859-1"?>
<!-- Generator: Adobe Illustrator 21.1.0, SVG Export Plug-In . SVG Version: 6.00 Build 0)  -->
<svg version="1.1" id="Layer_1" xmlns="http://www.w3.org/2000/svg" xmlns:xlink="http://www.w3.org/1999/xlink" x="0px" y="0px"
	 viewBox="0 0 100.75 100.75" style="enable-background:new 0 0 100.75 100.75;" xml:space="preserve">
<g>
	<path d="M56.939,45.942c0,0.803,0.65,1.453,1.453,1.453s1.453-0.65,1.453-1.453c0-4.032-3.57-7.372-8.208-7.959v-6.176
		c0-0.803-0.65-1.453-1.453-1.453s-1.453,0.65-1.453,1.453v6.176c-4.638,0.588-8.208,3.928-8.208,7.959
		c0,4.029,3.569,7.368,8.208,7.956v10.291c-3.028-0.508-5.303-2.571-5.303-5.035c0-0.803-0.65-1.453-1.453-1.453
		s-1.453,0.65-1.453,1.453c0,4.035,3.571,7.377,8.209,7.963v6.173c0,0.803,0.65,1.453,1.453,1.453s1.453-0.65,1.453-1.453v-6.174
		c4.639-0.59,8.207-3.93,8.207-7.961c0-4.03-3.569-7.369-8.207-7.958V40.911C54.666,41.42,56.939,43.481,56.939,45.942z
		 M43.43,45.942c0-2.461,2.274-4.521,5.302-5.03v10.058C45.704,50.461,43.43,48.401,43.43,45.942z M56.938,59.153
		c0,2.461-2.273,4.522-5.301,5.033V54.123C54.666,54.634,56.938,56.694,56.938,59.153z"/>
	<path d="M50.177,24.291c-15.58,0-28.255,12.675-28.255,28.255c0,15.58,12.675,28.255,28.255,28.255
		c15.58,0,28.255-12.675,28.255-28.255C78.432,36.966,65.757,24.291,50.177,24.291z M50.177,77.895
		c-13.978,0-25.349-11.371-25.349-25.349s11.371-25.349,25.349-25.349s25.349,11.371,25.349,25.349S64.154,77.895,50.177,77.895z"/>
	<path d="M98.827,87.228c-0.575-0.558-1.495-0.545-2.055,0.031l-5.209,5.372V45.3c0-0.803-0.65-1.453-1.453-1.453
		s-1.453,0.65-1.453,1.453v47.401l-5.332-5.499c-0.56-0.576-1.479-0.589-2.055-0.031c-0.576,0.559-0.59,1.479-0.031,2.055
		l7.794,8.037c0.273,0.282,0.649,0.441,1.043,0.441s0.77-0.159,1.043-0.441l7.739-7.98C99.417,88.706,99.403,87.786,98.827,87.228z"
		/>
	<path d="M11.36,2.423c-0.045-0.045-0.103-0.063-0.151-0.101c-0.023-0.016-0.046-0.032-0.07-0.047
		C10.573,1.89,9.808,1.922,9.306,2.424l-7.795,7.792c-0.567,0.567-0.568,1.488,0,2.055c0.284,0.284,0.655,0.426,1.027,0.426
		c0.372,0,0.744-0.142,1.027-0.426l5.348-5.346V52.86c0,0.803,0.65,1.453,1.453,1.453s1.453-0.65,1.453-1.453V6.991l5.229,5.225
		c0.568,0.568,1.488,0.566,2.055,0c0.567-0.568,0.567-1.488,0-2.055L11.36,2.423z"/>
</g>
</svg>
